PathFileType  4	(X/Y/Z) C:\Users\antoi\Documents\MyRepositories\mobilecap\ResultsAnalysis
DataRate	CameraRate	NumFrames	NumMarkers	Units	OrigDataRate	OrigDataStartFrame	OrigNumFrames
100.0	100.0	4	51	mm	100.0	103	136
Frame#	Time	r_knee			r_shank_antsup			r_ankle			r_calc			r_5meta			r_toe			L_knee			L_shank_antsup			L_ankle			L_calc			L_5meta			L_toe			r_sh2			r_sh3			r_sh4			L_sh2			L_sh3			r_thigh1			r_thigh2			r_thigh3			r_thigh4			r_thigh5			L_thigh1			L_thigh2			L_thigh3			L_thigh4			r.ASIS			r.PSIS			L.ASIS			L.PSIS			C7			R_Shoulder			L_Shoulder			R_Sternum			L_Sternum			R_humerus			R_elbow_med			R_elbow_lat			R_forearm			R_wrist_radius			R_wrist_ulna			L_humerus			L_elbow_med			L_elbow_lat			L_forearm			L_wrist_radius			L_wrist_ulna			R_HJC			L_HJC			R_HJC_reg			L_HJC_reg			
		X1	Y1	Z1	X2	Y2	Z2	X3	Y3	Z3	X4	Y4	Z4	X5	Y5	Z5	X6	Y6	Z6	X7	Y7	Z7	X8	Y8	Z8	X9	Y9	Z9	X10	Y10	Z10	X11	Y11	Z11	X12	Y12	Z12	X13	Y13	Z13	X14	Y14	Z14	X15	Y15	Z15	X16	Y16	Z16	X17	Y17	Z17	X18	Y18	Z18	X19	Y19	Z19	X20	Y20	Z20	X21	Y21	Z21	X22	Y22	Z22	X23	Y23	Z23	X24	Y24	Z24	X25	Y25	Z25	X26	Y26	Z26	X27	Y27	Z27	X28	Y28	Z28	X29	Y29	Z29	X30	Y30	Z30	X31	Y31	Z31	X32	Y32	Z32	X33	Y33	Z33	X34	Y34	Z34	X35	Y35	Z35	X36	Y36	Z36	X37	Y37	Z37	X38	Y38	Z38	X39	Y39	Z39	X40	Y40	Z40	X41	Y41	Z41	X42	Y42	Z42	X43	Y43	Z43	X44	Y44	Z44	X45	Y45	Z45	X46	Y46	Z46	X47	Y47	Z47	X48	Y48	Z48	X49	Y49	Z49	X50	Y50	Z50	X51	Y51	Z51	

103	1.02000000	1232.51469	480.67575	-83.71765	1301.37304	388.30494	-104.77057	1309.43702	105.08690	-119.03600	1270.67685	50.76391	-163.26930	1434.96872	93.41074	-101.61923	1458.09330	127.04518	-146.63598	971.48567	462.21782	-363.77564	980.02057	357.61948	-303.53970	838.95701	92.82750	-297.05116	785.23170	59.26744	-248.65316	951.26542	36.50135	-308.30121	989.44138	53.36418	-253.31956	1319.36014	278.22035	-117.46452	1251.09714	372.07606	-49.71361	1251.27723	260.71830	-69.97507	944.93102	376.54957	-380.98957	911.23859	261.84591	-377.23835	1176.74576	785.96387	-88.27945	1229.69545	688.99652	-90.08819	1202.14308	648.20026	-43.63600	1090.31820	738.20154	-37.40809	1146.48259	637.77670	-36.48741	1103.42918	736.00775	-391.52131	1083.66679	600.40804	-374.44784	999.69176	750.89184	-431.38316	979.31349	612.33714	-409.32778	1149.86107	920.17905	-114.47305	965.87123	962.37622	-174.24896	1149.28158	915.48937	-355.50052	961.88838	969.66167	-291.35824	985.60441	1417.60601	-232.18039	1025.66329	1382.80346	-77.47787	1063.43975	1396.52939	-381.44788	1112.45248	1367.47883	-200.08415	1117.48837	1365.14492	-245.05871	1010.33225	1257.46164	-8.31215	918.85865	1075.50693	-80.84312	917.33602	1085.49385	-4.58668	925.86590	963.96990	34.86975	921.72028	858.58435	47.14049	885.11711	866.73082	50.40434	1115.13111	1264.22701	-453.52199	1106.50478	1057.13299	-426.01921	1116.83249	1078.31316	-495.36520	1205.89058	1030.32967	-518.03885	1304.22462	945.41327	-511.45904	1284.40080	925.77052	-529.56930	1058.15566	849.10166	-135.49919	1059.51128	845.13050	-324.82230	1080.62091	842.56479	-150.25721	1075.22309	852.43892	-308.96341	
104	1.03000000	1241.92126	477.90351	-82.24764	1314.20722	388.52206	-103.78483	1333.46355	105.45699	-121.12825	1297.08096	50.02762	-165.52404	1460.38146	98.11983	-104.63918	1481.78496	133.57929	-149.19491	978.16559	461.65332	-363.57772	985.07486	356.30104	-303.55259	839.78409	93.66225	-297.00176	785.76657	60.85874	-248.71486	951.28230	36.44806	-308.26730	989.30255	52.70671	-253.51362	1336.09602	278.99040	-117.46560	1264.01775	369.62759	-49.19282	1268.54257	258.66014	-70.68415	950.24915	376.22582	-380.70882	914.45842	262.17660	-377.21078	1189.29421	783.40701	-88.21761	1240.82165	685.58151	-89.67081	1212.90844	645.39218	-42.84774	1102.29883	737.08406	-36.88300	1157.09985	635.91158	-35.41068	1112.96701	734.26112	-391.94165	1092.17468	598.85646	-374.91760	1008.79561	750.03175	-430.68518	987.50282	611.75300	-409.11237	1162.96495	918.88742	-115.06003	978.36937	960.36006	-173.15708	1160.46274	913.77103	-356.25155	973.39522	967.47348	-290.20966	997.66084	1415.81232	-231.72572	1038.07400	1380.85355	-76.99900	1075.40437	1394.78471	-380.92718	1124.57676	1365.38654	-199.85382	1129.42291	1363.09140	-244.83779	1022.52417	1255.50289	-7.87906	930.46754	1073.83606	-80.47045	928.70778	1083.99065	-4.20201	936.19819	962.53333	35.41003	931.23248	857.23624	47.81502	894.62407	865.65208	50.96057	1127.69281	1262.93558	-453.02089	1120.02687	1055.72516	-426.22150	1130.39917	1077.07568	-495.55101	1220.32486	1030.40564	-517.57131	1320.21941	947.33533	-510.38458	1301.05464	927.11832	-528.53480	1071.41739	847.44493	-135.15675	1071.08064	843.20438	-324.47993	1093.71245	840.88126	-150.19992	1086.96206	850.53170	-308.99018	
105	1.04000000	1251.59623	475.33083	-80.97834	1326.44258	388.21022	-102.68987	1354.36781	105.65577	-123.39724	1320.18997	49.45874	-168.34453	1482.39174	101.65133	-107.16083	1502.56361	138.77679	-151.03546	985.14471	461.02281	-363.30219	990.53163	355.02056	-303.47246	840.75352	94.72009	-297.09113	786.31392	62.69452	-248.83438	951.31441	36.41927	-308.21703	989.26824	51.99814	-253.74718	1351.30297	279.16420	-117.49306	1275.99084	366.89910	-48.81482	1284.13370	256.52110	-71.77815	955.91940	375.91929	-380.37128	917.94940	262.54350	-377.15928	1201.97764	781.22136	-88.05601	1252.29599	682.69239	-89.25195	1224.18358	642.92992	-42.12512	1114.60783	736.07223	-36.23380	1168.23157	634.28257	-34.41159	1122.71984	732.47190	-392.28227	1101.04936	597.28787	-375.31675	1018.23917	749.27037	-430.25589	995.94965	611.08715	-408.82192	1176.14659	917.50492	-115.54761	990.99403	958.30929	-172.08375	1171.88350	911.93334	-356.96874	985.12585	965.19553	-289.06353	1009.77527	1413.90606	-231.19067	1050.55083	1378.79311	-76.45392	1087.33573	1392.93764	-380.42472	1136.74575	1363.25086	-199.60318	1141.41336	1360.99901	-244.60002	1034.93806	1253.37760	-7.41117	942.32233	1071.96114	-80.02660	940.37432	1082.26037	-3.76396	946.91547	960.86670	35.96320	941.23049	855.64945	48.48170	904.60544	864.30522	51.50507	1140.18439	1261.46266	-452.47931	1133.24339	1054.14452	-426.43917	1143.74268	1075.67442	-495.70405	1234.45408	1030.21295	-517.03031	1335.70970	948.89826	-509.15110	1317.29587	928.11727	-527.39596	1084.77382	845.72047	-134.78329	1082.85051	841.18206	-324.09283	1106.86400	839.14056	-150.07672	1098.88789	848.49607	-309.00331	
106	1.05000000	1261.65589	472.98044	-80.05100	1338.17860	387.29141	-101.65897	1372.09233	105.34346	-125.73247	1339.81170	48.75747	-171.48762	1500.92827	103.64055	-109.13488	1520.42068	142.19982	-152.22519	992.41559	460.35022	-362.92356	996.33499	353.77533	-303.30930	841.83239	96.05018	-297.27031	786.87787	64.81379	-249.00941	951.37126	36.41795	-308.15911	989.40945	51.29232	-253.98215	1365.04868	278.60603	-117.60484	1287.14602	363.94139	-48.67611	1298.05996	254.25286	-73.23740	961.90575	375.64998	-379.96417	921.70852	262.98715	-377.06551	1214.85442	779.44145	-87.76735	1264.22075	680.37866	-88.85653	1236.03529	640.86060	-41.50738	1127.27892	735.14078	-35.49497	1179.95959	632.88165	-33.54598	1132.69362	730.63805	-392.52910	1110.28332	595.72420	-375.58307	1028.03673	748.64748	-430.04732	1004.63820	610.38732	-408.39254	1189.39925	916.11458	-115.89748	1003.74211	956.26352	-171.06780	1183.57630	909.99393	-357.60080	997.11281	962.85747	-287.96497	1021.93029	1411.92861	-230.56452	1063.07657	1376.65522	-75.85117	1099.22270	1391.02930	-379.94963	1148.94455	1361.10305	-199.33007	1153.46935	1358.90463	-244.34100	1047.54916	1251.12021	-6.90851	954.42966	1069.91266	-79.52003	952.34492	1080.32695	-3.28141	958.04301	958.99367	36.52671	951.73605	853.85025	49.13695	915.08235	862.71504	52.04136	1152.58289	1259.83358	-451.91544	1146.15325	1052.41362	-426.65906	1156.85098	1074.13690	-495.80591	1248.28543	1029.77712	-516.41752	1350.68925	950.09918	-507.77437	1333.04721	928.79951	-526.15374	1098.21713	843.99668	-134.35078	1094.86872	839.08289	-323.63409	1120.08027	837.38916	-149.86083	1111.05361	846.36364	-308.97161	
